<mxfile host="app.diagrams.net" modified="2024-04-23T05:55:06.587Z" agent="Mozilla/5.0 (X11; Linux x86_64) AppleWebKit/537.36 (KHTML, like Gecko) Chrome/122.0.0.0 Safari/537.36" etag="tN_yKmy9ZBfKL7evKIlG" version="24.2.8" type="device">
  <diagram name="Page-1" id="0lbxYeG6qeLhuj6c0Yf_">
    <mxGraphModel dx="880" dy="504" grid="1" gridSize="10" guides="1" tooltips="1" connect="1" arrows="1" fold="1" page="1" pageScale="1" pageWidth="850" pageHeight="1100" math="0" shadow="0">
      <root>
        <mxCell id="0" />
        <mxCell id="1" parent="0" />
        <mxCell id="-ogSnWxAyyb8cwJE6GZp-149" style="edgeStyle=orthogonalEdgeStyle;rounded=0;orthogonalLoop=1;jettySize=auto;html=1;entryX=0.25;entryY=0;entryDx=0;entryDy=0;" parent="1" source="-ogSnWxAyyb8cwJE6GZp-5" target="-ogSnWxAyyb8cwJE6GZp-96" edge="1">
          <mxGeometry relative="1" as="geometry" />
        </mxCell>
        <mxCell id="-ogSnWxAyyb8cwJE6GZp-5" value="&lt;span style=&quot;font-weight: 400; text-wrap: nowrap;&quot;&gt;authControllers.js&lt;/span&gt;" style="swimlane;whiteSpace=wrap;html=1;" parent="1" vertex="1">
          <mxGeometry x="20" y="20" width="120" height="230" as="geometry" />
        </mxCell>
        <mxCell id="-ogSnWxAyyb8cwJE6GZp-6" value="signToken()" style="text;html=1;align=center;verticalAlign=middle;resizable=0;points=[];autosize=1;strokeColor=none;fillColor=none;" parent="-ogSnWxAyyb8cwJE6GZp-5" vertex="1">
          <mxGeometry y="20" width="90" height="30" as="geometry" />
        </mxCell>
        <mxCell id="-ogSnWxAyyb8cwJE6GZp-9" value="createSendToken()" style="text;html=1;align=center;verticalAlign=middle;resizable=0;points=[];autosize=1;strokeColor=none;fillColor=none;" parent="-ogSnWxAyyb8cwJE6GZp-5" vertex="1">
          <mxGeometry y="40" width="120" height="30" as="geometry" />
        </mxCell>
        <mxCell id="-ogSnWxAyyb8cwJE6GZp-10" value="signup()" style="text;html=1;align=center;verticalAlign=middle;resizable=0;points=[];autosize=1;strokeColor=none;fillColor=none;" parent="-ogSnWxAyyb8cwJE6GZp-5" vertex="1">
          <mxGeometry y="60" width="70" height="30" as="geometry" />
        </mxCell>
        <mxCell id="-ogSnWxAyyb8cwJE6GZp-11" value="login()" style="text;html=1;align=center;verticalAlign=middle;resizable=0;points=[];autosize=1;strokeColor=none;fillColor=none;" parent="-ogSnWxAyyb8cwJE6GZp-5" vertex="1">
          <mxGeometry x="5" y="80" width="60" height="30" as="geometry" />
        </mxCell>
        <mxCell id="-ogSnWxAyyb8cwJE6GZp-12" value="protect()" style="text;html=1;align=center;verticalAlign=middle;resizable=0;points=[];autosize=1;strokeColor=none;fillColor=none;" parent="-ogSnWxAyyb8cwJE6GZp-5" vertex="1">
          <mxGeometry x="5" y="100" width="70" height="30" as="geometry" />
        </mxCell>
        <mxCell id="-ogSnWxAyyb8cwJE6GZp-15" value="isLoggedIn()" style="text;html=1;align=center;verticalAlign=middle;resizable=0;points=[];autosize=1;strokeColor=none;fillColor=none;" parent="-ogSnWxAyyb8cwJE6GZp-5" vertex="1">
          <mxGeometry x="-5" y="120" width="90" height="30" as="geometry" />
        </mxCell>
        <mxCell id="-ogSnWxAyyb8cwJE6GZp-18" value="forgotPassword()" style="text;html=1;align=center;verticalAlign=middle;resizable=0;points=[];autosize=1;strokeColor=none;fillColor=none;" parent="-ogSnWxAyyb8cwJE6GZp-5" vertex="1">
          <mxGeometry x="-5" y="140" width="110" height="30" as="geometry" />
        </mxCell>
        <mxCell id="-ogSnWxAyyb8cwJE6GZp-19" value="resetPassword()" style="text;html=1;align=center;verticalAlign=middle;resizable=0;points=[];autosize=1;strokeColor=none;fillColor=none;" parent="-ogSnWxAyyb8cwJE6GZp-5" vertex="1">
          <mxGeometry y="160" width="110" height="30" as="geometry" />
        </mxCell>
        <mxCell id="-ogSnWxAyyb8cwJE6GZp-20" value="updatePassword()" style="text;html=1;align=center;verticalAlign=middle;resizable=0;points=[];autosize=1;strokeColor=none;fillColor=none;" parent="-ogSnWxAyyb8cwJE6GZp-5" vertex="1">
          <mxGeometry x="-5" y="180" width="120" height="30" as="geometry" />
        </mxCell>
        <mxCell id="-ogSnWxAyyb8cwJE6GZp-21" value="&lt;span style=&quot;font-weight: 400; text-wrap: nowrap;&quot;&gt;bookingController.js&lt;/span&gt;" style="swimlane;whiteSpace=wrap;html=1;" parent="1" vertex="1">
          <mxGeometry x="400" y="190" width="150" height="120" as="geometry" />
        </mxCell>
        <mxCell id="-ogSnWxAyyb8cwJE6GZp-22" value="createBookingCheckout()" style="text;html=1;align=center;verticalAlign=middle;resizable=0;points=[];autosize=1;strokeColor=none;fillColor=none;" parent="-ogSnWxAyyb8cwJE6GZp-21" vertex="1">
          <mxGeometry x="-10" y="20" width="160" height="30" as="geometry" />
        </mxCell>
        <mxCell id="-ogSnWxAyyb8cwJE6GZp-23" value="getCheckOutSession()" style="text;html=1;align=center;verticalAlign=middle;resizable=0;points=[];autosize=1;strokeColor=none;fillColor=none;" parent="-ogSnWxAyyb8cwJE6GZp-21" vertex="1">
          <mxGeometry x="-10" y="40" width="140" height="30" as="geometry" />
        </mxCell>
        <mxCell id="-ogSnWxAyyb8cwJE6GZp-25" value="webHookCheckout()" style="text;html=1;align=center;verticalAlign=middle;resizable=0;points=[];autosize=1;strokeColor=none;fillColor=none;" parent="-ogSnWxAyyb8cwJE6GZp-21" vertex="1">
          <mxGeometry x="10" y="70" width="130" height="30" as="geometry" />
        </mxCell>
        <mxCell id="-ogSnWxAyyb8cwJE6GZp-31" value="&lt;span style=&quot;font-weight: 400; text-wrap: nowrap;&quot;&gt;handleFactory.js&lt;/span&gt;" style="swimlane;whiteSpace=wrap;html=1;" parent="1" vertex="1">
          <mxGeometry x="390" y="30" width="120" height="140" as="geometry" />
        </mxCell>
        <mxCell id="-ogSnWxAyyb8cwJE6GZp-32" value="updateOne(modal)" style="text;html=1;align=center;verticalAlign=middle;resizable=0;points=[];autosize=1;strokeColor=none;fillColor=none;" parent="-ogSnWxAyyb8cwJE6GZp-31" vertex="1">
          <mxGeometry y="20" width="120" height="30" as="geometry" />
        </mxCell>
        <mxCell id="-ogSnWxAyyb8cwJE6GZp-33" value="deleteOne(modal)" style="text;html=1;align=center;verticalAlign=middle;resizable=0;points=[];autosize=1;strokeColor=none;fillColor=none;" parent="-ogSnWxAyyb8cwJE6GZp-31" vertex="1">
          <mxGeometry y="40" width="120" height="30" as="geometry" />
        </mxCell>
        <mxCell id="-ogSnWxAyyb8cwJE6GZp-34" value="createOne(modal)" style="text;html=1;align=center;verticalAlign=middle;resizable=0;points=[];autosize=1;strokeColor=none;fillColor=none;" parent="-ogSnWxAyyb8cwJE6GZp-31" vertex="1">
          <mxGeometry y="60" width="120" height="30" as="geometry" />
        </mxCell>
        <mxCell id="-ogSnWxAyyb8cwJE6GZp-35" value="getAll(modal)" style="text;html=1;align=center;verticalAlign=middle;resizable=0;points=[];autosize=1;strokeColor=none;fillColor=none;" parent="-ogSnWxAyyb8cwJE6GZp-31" vertex="1">
          <mxGeometry x="15" y="80" width="90" height="30" as="geometry" />
        </mxCell>
        <mxCell id="-ogSnWxAyyb8cwJE6GZp-36" value="getOne(modal)" style="text;html=1;align=center;verticalAlign=middle;resizable=0;points=[];autosize=1;strokeColor=none;fillColor=none;" parent="-ogSnWxAyyb8cwJE6GZp-31" vertex="1">
          <mxGeometry x="5" y="100" width="100" height="30" as="geometry" />
        </mxCell>
        <mxCell id="-ogSnWxAyyb8cwJE6GZp-41" value="&lt;span style=&quot;font-weight: 400; text-wrap: nowrap;&quot;&gt;errorController.jsx&lt;/span&gt;" style="swimlane;whiteSpace=wrap;html=1;" parent="1" vertex="1">
          <mxGeometry x="390" y="870" width="130" height="80" as="geometry" />
        </mxCell>
        <mxCell id="-ogSnWxAyyb8cwJE6GZp-152" style="edgeStyle=orthogonalEdgeStyle;rounded=0;orthogonalLoop=1;jettySize=auto;html=1;" parent="-ogSnWxAyyb8cwJE6GZp-41" source="-ogSnWxAyyb8cwJE6GZp-53" edge="1">
          <mxGeometry relative="1" as="geometry">
            <mxPoint x="220" y="10" as="targetPoint" />
          </mxGeometry>
        </mxCell>
        <mxCell id="-ogSnWxAyyb8cwJE6GZp-53" value="GlobalError&lt;div&gt;Handler(err,res)&lt;/div&gt;" style="text;html=1;align=center;verticalAlign=middle;resizable=0;points=[];autosize=1;strokeColor=none;fillColor=none;" parent="-ogSnWxAyyb8cwJE6GZp-41" vertex="1">
          <mxGeometry x="20" y="35" width="110" height="40" as="geometry" />
        </mxCell>
        <mxCell id="-ogSnWxAyyb8cwJE6GZp-57" value="&lt;span style=&quot;font-weight: 400; text-wrap: nowrap;&quot;&gt;reviewController.js&lt;/span&gt;" style="swimlane;whiteSpace=wrap;html=1;" parent="1" vertex="1">
          <mxGeometry x="640" y="210" width="130" height="80" as="geometry" />
        </mxCell>
        <mxCell id="-ogSnWxAyyb8cwJE6GZp-60" value="setTourUserIds()" style="text;html=1;align=center;verticalAlign=middle;resizable=0;points=[];autosize=1;strokeColor=none;fillColor=none;" parent="-ogSnWxAyyb8cwJE6GZp-57" vertex="1">
          <mxGeometry x="10" y="30" width="110" height="30" as="geometry" />
        </mxCell>
        <mxCell id="-ogSnWxAyyb8cwJE6GZp-61" value="&lt;span style=&quot;font-weight: 400; text-wrap: nowrap;&quot;&gt;tourController.js&lt;/span&gt;" style="swimlane;whiteSpace=wrap;html=1;" parent="1" vertex="1">
          <mxGeometry x="30" y="310" width="125" height="230" as="geometry" />
        </mxCell>
        <mxCell id="-ogSnWxAyyb8cwJE6GZp-62" value="multerFile()" style="text;html=1;align=center;verticalAlign=middle;resizable=0;points=[];autosize=1;strokeColor=none;fillColor=none;" parent="-ogSnWxAyyb8cwJE6GZp-61" vertex="1">
          <mxGeometry x="5" y="20" width="80" height="30" as="geometry" />
        </mxCell>
        <mxCell id="-ogSnWxAyyb8cwJE6GZp-63" value="uploadTourImages()" style="text;html=1;align=center;verticalAlign=middle;resizable=0;points=[];autosize=1;strokeColor=none;fillColor=none;" parent="-ogSnWxAyyb8cwJE6GZp-61" vertex="1">
          <mxGeometry x="-5" y="40" width="130" height="30" as="geometry" />
        </mxCell>
        <mxCell id="-ogSnWxAyyb8cwJE6GZp-64" value="resizeTourSizes()" style="text;html=1;align=center;verticalAlign=middle;resizable=0;points=[];autosize=1;strokeColor=none;fillColor=none;" parent="-ogSnWxAyyb8cwJE6GZp-61" vertex="1">
          <mxGeometry x="2.5" y="60" width="120" height="30" as="geometry" />
        </mxCell>
        <mxCell id="-ogSnWxAyyb8cwJE6GZp-65" value="aliasTopTours()" style="text;html=1;align=center;verticalAlign=middle;resizable=0;points=[];autosize=1;strokeColor=none;fillColor=none;" parent="-ogSnWxAyyb8cwJE6GZp-61" vertex="1">
          <mxGeometry x="5" y="80" width="100" height="30" as="geometry" />
        </mxCell>
        <mxCell id="-ogSnWxAyyb8cwJE6GZp-66" value="getTourStats()" style="text;html=1;align=center;verticalAlign=middle;resizable=0;points=[];autosize=1;strokeColor=none;fillColor=none;" parent="-ogSnWxAyyb8cwJE6GZp-61" vertex="1">
          <mxGeometry x="-5" y="100" width="100" height="30" as="geometry" />
        </mxCell>
        <mxCell id="-ogSnWxAyyb8cwJE6GZp-67" value="getMonthlyPlan()" style="text;html=1;align=center;verticalAlign=middle;resizable=0;points=[];autosize=1;strokeColor=none;fillColor=none;" parent="-ogSnWxAyyb8cwJE6GZp-61" vertex="1">
          <mxGeometry x="-5" y="120" width="110" height="30" as="geometry" />
        </mxCell>
        <mxCell id="-ogSnWxAyyb8cwJE6GZp-69" value="getTourWithIn()" style="text;html=1;align=center;verticalAlign=middle;resizable=0;points=[];autosize=1;strokeColor=none;fillColor=none;" parent="-ogSnWxAyyb8cwJE6GZp-61" vertex="1">
          <mxGeometry x="5" y="150" width="110" height="30" as="geometry" />
        </mxCell>
        <mxCell id="-ogSnWxAyyb8cwJE6GZp-70" value="getDistances()" style="text;html=1;align=center;verticalAlign=middle;resizable=0;points=[];autosize=1;strokeColor=none;fillColor=none;" parent="-ogSnWxAyyb8cwJE6GZp-61" vertex="1">
          <mxGeometry x="5" y="180" width="100" height="30" as="geometry" />
        </mxCell>
        <mxCell id="-ogSnWxAyyb8cwJE6GZp-76" value="&lt;span style=&quot;font-weight: 400; text-wrap: nowrap;&quot;&gt;userController.js&lt;/span&gt;" style="swimlane;whiteSpace=wrap;html=1;" parent="1" vertex="1">
          <mxGeometry x="230" y="200" width="125" height="120" as="geometry" />
        </mxCell>
        <mxCell id="-ogSnWxAyyb8cwJE6GZp-77" value="multerFile()" style="text;html=1;align=center;verticalAlign=middle;resizable=0;points=[];autosize=1;strokeColor=none;fillColor=none;" parent="-ogSnWxAyyb8cwJE6GZp-76" vertex="1">
          <mxGeometry x="5" y="20" width="80" height="30" as="geometry" />
        </mxCell>
        <mxCell id="-ogSnWxAyyb8cwJE6GZp-78" value="updateMe()" style="text;html=1;align=center;verticalAlign=middle;resizable=0;points=[];autosize=1;strokeColor=none;fillColor=none;" parent="-ogSnWxAyyb8cwJE6GZp-76" vertex="1">
          <mxGeometry x="20" y="40" width="80" height="30" as="geometry" />
        </mxCell>
        <mxCell id="-ogSnWxAyyb8cwJE6GZp-79" value="CreateUser()" style="text;html=1;align=center;verticalAlign=middle;resizable=0;points=[];autosize=1;strokeColor=none;fillColor=none;" parent="-ogSnWxAyyb8cwJE6GZp-76" vertex="1">
          <mxGeometry x="17.5" y="60" width="90" height="30" as="geometry" />
        </mxCell>
        <mxCell id="-ogSnWxAyyb8cwJE6GZp-80" value="deleteMe()" style="text;html=1;align=center;verticalAlign=middle;resizable=0;points=[];autosize=1;strokeColor=none;fillColor=none;" parent="-ogSnWxAyyb8cwJE6GZp-76" vertex="1">
          <mxGeometry x="15" y="80" width="80" height="30" as="geometry" />
        </mxCell>
        <mxCell id="-ogSnWxAyyb8cwJE6GZp-142" style="edgeStyle=orthogonalEdgeStyle;rounded=0;orthogonalLoop=1;jettySize=auto;html=1;" parent="1" source="-ogSnWxAyyb8cwJE6GZp-86" target="-ogSnWxAyyb8cwJE6GZp-94" edge="1">
          <mxGeometry relative="1" as="geometry" />
        </mxCell>
        <mxCell id="-ogSnWxAyyb8cwJE6GZp-144" style="edgeStyle=orthogonalEdgeStyle;rounded=0;orthogonalLoop=1;jettySize=auto;html=1;" parent="1" source="-ogSnWxAyyb8cwJE6GZp-86" edge="1">
          <mxGeometry relative="1" as="geometry">
            <mxPoint x="160" y="400" as="targetPoint" />
          </mxGeometry>
        </mxCell>
        <mxCell id="-ogSnWxAyyb8cwJE6GZp-86" value="&lt;span style=&quot;font-weight: 400; text-wrap: nowrap;&quot;&gt;tourModal.js&lt;/span&gt;" style="swimlane;whiteSpace=wrap;html=1;" parent="1" vertex="1">
          <mxGeometry x="210" y="360" width="130" height="80" as="geometry" />
        </mxCell>
        <mxCell id="-ogSnWxAyyb8cwJE6GZp-87" value="tourSchema()" style="text;html=1;align=center;verticalAlign=middle;resizable=0;points=[];autosize=1;strokeColor=none;fillColor=none;" parent="-ogSnWxAyyb8cwJE6GZp-86" vertex="1">
          <mxGeometry x="15" y="30" width="100" height="30" as="geometry" />
        </mxCell>
        <mxCell id="-ogSnWxAyyb8cwJE6GZp-137" style="edgeStyle=orthogonalEdgeStyle;rounded=0;orthogonalLoop=1;jettySize=auto;html=1;" parent="1" source="-ogSnWxAyyb8cwJE6GZp-88" target="-ogSnWxAyyb8cwJE6GZp-96" edge="1">
          <mxGeometry relative="1" as="geometry" />
        </mxCell>
        <mxCell id="-ogSnWxAyyb8cwJE6GZp-145" style="edgeStyle=orthogonalEdgeStyle;rounded=0;orthogonalLoop=1;jettySize=auto;html=1;exitX=0.5;exitY=0;exitDx=0;exitDy=0;" parent="1" source="-ogSnWxAyyb8cwJE6GZp-88" edge="1">
          <mxGeometry relative="1" as="geometry">
            <mxPoint x="340" y="320" as="targetPoint" />
          </mxGeometry>
        </mxCell>
        <mxCell id="-ogSnWxAyyb8cwJE6GZp-88" value="&lt;span style=&quot;font-weight: 400; text-wrap: nowrap;&quot;&gt;userModal.js&lt;/span&gt;" style="swimlane;whiteSpace=wrap;html=1;" parent="1" vertex="1">
          <mxGeometry x="370" y="360" width="130" height="80" as="geometry" />
        </mxCell>
        <mxCell id="-ogSnWxAyyb8cwJE6GZp-89" value="userSchema()" style="text;html=1;align=center;verticalAlign=middle;resizable=0;points=[];autosize=1;strokeColor=none;fillColor=none;" parent="-ogSnWxAyyb8cwJE6GZp-88" vertex="1">
          <mxGeometry x="15" y="30" width="100" height="30" as="geometry" />
        </mxCell>
        <mxCell id="-ogSnWxAyyb8cwJE6GZp-136" style="edgeStyle=orthogonalEdgeStyle;rounded=0;orthogonalLoop=1;jettySize=auto;html=1;entryX=0.5;entryY=0;entryDx=0;entryDy=0;" parent="1" source="-ogSnWxAyyb8cwJE6GZp-90" target="-ogSnWxAyyb8cwJE6GZp-98" edge="1">
          <mxGeometry relative="1" as="geometry" />
        </mxCell>
        <mxCell id="-ogSnWxAyyb8cwJE6GZp-146" style="edgeStyle=orthogonalEdgeStyle;rounded=0;orthogonalLoop=1;jettySize=auto;html=1;entryX=0;entryY=0.5;entryDx=0;entryDy=0;" parent="1" source="-ogSnWxAyyb8cwJE6GZp-90" target="-ogSnWxAyyb8cwJE6GZp-57" edge="1">
          <mxGeometry relative="1" as="geometry" />
        </mxCell>
        <mxCell id="-ogSnWxAyyb8cwJE6GZp-90" value="&lt;span style=&quot;font-weight: 400; text-wrap: nowrap;&quot;&gt;reviewModal.js&lt;/span&gt;" style="swimlane;whiteSpace=wrap;html=1;" parent="1" vertex="1">
          <mxGeometry x="530" y="360" width="130" height="80" as="geometry" />
        </mxCell>
        <mxCell id="-ogSnWxAyyb8cwJE6GZp-91" value="reviewSchema()" style="text;html=1;align=center;verticalAlign=middle;resizable=0;points=[];autosize=1;strokeColor=none;fillColor=none;" parent="-ogSnWxAyyb8cwJE6GZp-90" vertex="1">
          <mxGeometry x="10" y="30" width="110" height="30" as="geometry" />
        </mxCell>
        <mxCell id="-ogSnWxAyyb8cwJE6GZp-131" style="edgeStyle=orthogonalEdgeStyle;rounded=0;orthogonalLoop=1;jettySize=auto;html=1;entryX=1;entryY=0;entryDx=0;entryDy=0;" parent="1" source="-ogSnWxAyyb8cwJE6GZp-92" target="-ogSnWxAyyb8cwJE6GZp-100" edge="1">
          <mxGeometry relative="1" as="geometry" />
        </mxCell>
        <mxCell id="-ogSnWxAyyb8cwJE6GZp-148" style="edgeStyle=orthogonalEdgeStyle;rounded=0;orthogonalLoop=1;jettySize=auto;html=1;" parent="1" source="-ogSnWxAyyb8cwJE6GZp-92" edge="1">
          <mxGeometry relative="1" as="geometry">
            <mxPoint x="500" y="300" as="targetPoint" />
          </mxGeometry>
        </mxCell>
        <mxCell id="-ogSnWxAyyb8cwJE6GZp-92" value="&lt;span style=&quot;font-weight: 400; text-wrap: nowrap;&quot;&gt;bookingModal.js&lt;/span&gt;" style="swimlane;whiteSpace=wrap;html=1;" parent="1" vertex="1">
          <mxGeometry x="690" y="360" width="130" height="80" as="geometry" />
        </mxCell>
        <mxCell id="-ogSnWxAyyb8cwJE6GZp-93" value="bookingSchema()" style="text;html=1;align=center;verticalAlign=middle;resizable=0;points=[];autosize=1;strokeColor=none;fillColor=none;" parent="-ogSnWxAyyb8cwJE6GZp-92" vertex="1">
          <mxGeometry x="5" y="30" width="120" height="30" as="geometry" />
        </mxCell>
        <mxCell id="-ogSnWxAyyb8cwJE6GZp-94" value="&lt;span style=&quot;font-weight: 400; text-wrap: nowrap;&quot;&gt;tourRoutes.js&lt;/span&gt;" style="swimlane;whiteSpace=wrap;html=1;" parent="1" vertex="1">
          <mxGeometry x="190" y="560" width="130" height="80" as="geometry" />
        </mxCell>
        <mxCell id="-ogSnWxAyyb8cwJE6GZp-95" value="router()" style="text;html=1;align=center;verticalAlign=middle;resizable=0;points=[];autosize=1;strokeColor=none;fillColor=none;" parent="-ogSnWxAyyb8cwJE6GZp-94" vertex="1">
          <mxGeometry x="35" y="30" width="60" height="30" as="geometry" />
        </mxCell>
        <mxCell id="-ogSnWxAyyb8cwJE6GZp-96" value="&lt;span style=&quot;font-weight: 400; text-wrap: nowrap;&quot;&gt;userRoutes.js&lt;/span&gt;" style="swimlane;whiteSpace=wrap;html=1;" parent="1" vertex="1">
          <mxGeometry x="355" y="640" width="130" height="80" as="geometry" />
        </mxCell>
        <mxCell id="-ogSnWxAyyb8cwJE6GZp-97" value="router()" style="text;html=1;align=center;verticalAlign=middle;resizable=0;points=[];autosize=1;strokeColor=none;fillColor=none;" parent="-ogSnWxAyyb8cwJE6GZp-96" vertex="1">
          <mxGeometry x="35" y="30" width="60" height="30" as="geometry" />
        </mxCell>
        <mxCell id="-ogSnWxAyyb8cwJE6GZp-124" style="edgeStyle=orthogonalEdgeStyle;rounded=0;orthogonalLoop=1;jettySize=auto;html=1;entryX=0;entryY=0.5;entryDx=0;entryDy=0;" parent="1" source="-ogSnWxAyyb8cwJE6GZp-98" target="-ogSnWxAyyb8cwJE6GZp-118" edge="1">
          <mxGeometry relative="1" as="geometry" />
        </mxCell>
        <mxCell id="-ogSnWxAyyb8cwJE6GZp-98" value="&lt;span style=&quot;font-weight: 400; text-wrap: nowrap;&quot;&gt;reviewRoutes.js&lt;/span&gt;" style="swimlane;whiteSpace=wrap;html=1;" parent="1" vertex="1">
          <mxGeometry x="520" y="500" width="130" height="80" as="geometry" />
        </mxCell>
        <mxCell id="-ogSnWxAyyb8cwJE6GZp-99" value="router()" style="text;html=1;align=center;verticalAlign=middle;resizable=0;points=[];autosize=1;strokeColor=none;fillColor=none;" parent="-ogSnWxAyyb8cwJE6GZp-98" vertex="1">
          <mxGeometry x="35" y="30" width="60" height="30" as="geometry" />
        </mxCell>
        <mxCell id="-ogSnWxAyyb8cwJE6GZp-100" value="&lt;span style=&quot;font-weight: 400; text-wrap: nowrap;&quot;&gt;bookingRoutes.js&lt;/span&gt;" style="swimlane;whiteSpace=wrap;html=1;" parent="1" vertex="1">
          <mxGeometry x="690" y="590" width="130" height="80" as="geometry" />
        </mxCell>
        <mxCell id="-ogSnWxAyyb8cwJE6GZp-101" value="router()" style="text;html=1;align=center;verticalAlign=middle;resizable=0;points=[];autosize=1;strokeColor=none;fillColor=none;" parent="-ogSnWxAyyb8cwJE6GZp-100" vertex="1">
          <mxGeometry x="35" y="30" width="60" height="30" as="geometry" />
        </mxCell>
        <mxCell id="-ogSnWxAyyb8cwJE6GZp-143" style="edgeStyle=orthogonalEdgeStyle;rounded=0;orthogonalLoop=1;jettySize=auto;html=1;" parent="1" source="-ogSnWxAyyb8cwJE6GZp-103" edge="1">
          <mxGeometry relative="1" as="geometry">
            <mxPoint x="50" y="550" as="targetPoint" />
          </mxGeometry>
        </mxCell>
        <mxCell id="-ogSnWxAyyb8cwJE6GZp-103" value="&lt;span style=&quot;font-weight: 400; text-wrap: nowrap;&quot;&gt;apiFeature.js&lt;/span&gt;" style="swimlane;whiteSpace=wrap;html=1;" parent="1" vertex="1">
          <mxGeometry x="50" y="740" width="130" height="120" as="geometry" />
        </mxCell>
        <mxCell id="-ogSnWxAyyb8cwJE6GZp-106" value="sort()" style="text;html=1;align=center;verticalAlign=middle;resizable=0;points=[];autosize=1;strokeColor=none;fillColor=none;" parent="1" vertex="1">
          <mxGeometry x="75" y="768" width="50" height="30" as="geometry" />
        </mxCell>
        <mxCell id="-ogSnWxAyyb8cwJE6GZp-109" value="filter()" style="text;html=1;align=center;verticalAlign=middle;resizable=0;points=[];autosize=1;strokeColor=none;fillColor=none;" parent="1" vertex="1">
          <mxGeometry x="65" y="788" width="50" height="30" as="geometry" />
        </mxCell>
        <mxCell id="-ogSnWxAyyb8cwJE6GZp-110" value="paginate()" style="text;html=1;align=center;verticalAlign=middle;resizable=0;points=[];autosize=1;strokeColor=none;fillColor=none;" parent="1" vertex="1">
          <mxGeometry x="75" y="810" width="80" height="30" as="geometry" />
        </mxCell>
        <mxCell id="-ogSnWxAyyb8cwJE6GZp-141" style="edgeStyle=orthogonalEdgeStyle;rounded=0;orthogonalLoop=1;jettySize=auto;html=1;exitX=0.5;exitY=0;exitDx=0;exitDy=0;" parent="1" source="-ogSnWxAyyb8cwJE6GZp-111" edge="1">
          <mxGeometry relative="1" as="geometry">
            <mxPoint x="100" y="540" as="targetPoint" />
          </mxGeometry>
        </mxCell>
        <mxCell id="-ogSnWxAyyb8cwJE6GZp-111" value="appError.js" style="swimlane;whiteSpace=wrap;html=1;" parent="1" vertex="1">
          <mxGeometry x="210" y="740" width="140" height="70" as="geometry" />
        </mxCell>
        <mxCell id="-ogSnWxAyyb8cwJE6GZp-115" value="class AppError&lt;div&gt;(message ,statusCode)&lt;/div&gt;" style="text;html=1;align=center;verticalAlign=middle;resizable=0;points=[];autosize=1;strokeColor=none;fillColor=none;" parent="-ogSnWxAyyb8cwJE6GZp-111" vertex="1">
          <mxGeometry x="-10" y="30" width="150" height="40" as="geometry" />
        </mxCell>
        <mxCell id="-ogSnWxAyyb8cwJE6GZp-116" value="email.js" style="swimlane;whiteSpace=wrap;html=1;" parent="1" vertex="1">
          <mxGeometry x="380" y="743" width="140" height="77" as="geometry" />
        </mxCell>
        <mxCell id="-ogSnWxAyyb8cwJE6GZp-117" value="SendEmail()" style="text;html=1;align=center;verticalAlign=middle;resizable=0;points=[];autosize=1;strokeColor=none;fillColor=none;" parent="-ogSnWxAyyb8cwJE6GZp-116" vertex="1">
          <mxGeometry x="20" y="35" width="90" height="30" as="geometry" />
        </mxCell>
        <mxCell id="-ogSnWxAyyb8cwJE6GZp-118" value="server.js" style="swimlane;whiteSpace=wrap;html=1;" parent="1" vertex="1">
          <mxGeometry x="570" y="740" width="140" height="130" as="geometry" />
        </mxCell>
        <mxCell id="-ogSnWxAyyb8cwJE6GZp-119" value="connection()" style="text;html=1;align=center;verticalAlign=middle;resizable=0;points=[];autosize=1;strokeColor=none;fillColor=none;" parent="-ogSnWxAyyb8cwJE6GZp-118" vertex="1">
          <mxGeometry x="20" y="35" width="90" height="30" as="geometry" />
        </mxCell>
        <mxCell id="-ogSnWxAyyb8cwJE6GZp-120" value="listen()" style="text;html=1;align=center;verticalAlign=middle;resizable=0;points=[];autosize=1;strokeColor=none;fillColor=none;" parent="1" vertex="1">
          <mxGeometry x="590" y="798" width="60" height="30" as="geometry" />
        </mxCell>
        <mxCell id="-ogSnWxAyyb8cwJE6GZp-121" value="use()" style="text;html=1;align=center;verticalAlign=middle;resizable=0;points=[];autosize=1;strokeColor=none;fillColor=none;" parent="1" vertex="1">
          <mxGeometry x="595" y="828" width="50" height="30" as="geometry" />
        </mxCell>
        <mxCell id="-ogSnWxAyyb8cwJE6GZp-129" style="edgeStyle=orthogonalEdgeStyle;rounded=0;orthogonalLoop=1;jettySize=auto;html=1;entryX=0.571;entryY=-0.015;entryDx=0;entryDy=0;entryPerimeter=0;" parent="1" source="-ogSnWxAyyb8cwJE6GZp-94" target="-ogSnWxAyyb8cwJE6GZp-118" edge="1">
          <mxGeometry relative="1" as="geometry" />
        </mxCell>
        <mxCell id="-ogSnWxAyyb8cwJE6GZp-130" style="edgeStyle=orthogonalEdgeStyle;rounded=0;orthogonalLoop=1;jettySize=auto;html=1;entryX=0.407;entryY=-0.008;entryDx=0;entryDy=0;entryPerimeter=0;" parent="1" source="-ogSnWxAyyb8cwJE6GZp-100" target="-ogSnWxAyyb8cwJE6GZp-118" edge="1">
          <mxGeometry relative="1" as="geometry" />
        </mxCell>
        <mxCell id="-ogSnWxAyyb8cwJE6GZp-133" style="edgeStyle=orthogonalEdgeStyle;rounded=0;orthogonalLoop=1;jettySize=auto;html=1;exitX=1;exitY=0.5;exitDx=0;exitDy=0;entryX=0.171;entryY=-0.015;entryDx=0;entryDy=0;entryPerimeter=0;" parent="1" source="-ogSnWxAyyb8cwJE6GZp-96" target="-ogSnWxAyyb8cwJE6GZp-118" edge="1">
          <mxGeometry relative="1" as="geometry" />
        </mxCell>
        <mxCell id="-ogSnWxAyyb8cwJE6GZp-139" style="edgeStyle=orthogonalEdgeStyle;rounded=0;orthogonalLoop=1;jettySize=auto;html=1;entryX=0;entryY=0.75;entryDx=0;entryDy=0;" parent="1" source="-ogSnWxAyyb8cwJE6GZp-115" target="-ogSnWxAyyb8cwJE6GZp-116" edge="1">
          <mxGeometry relative="1" as="geometry" />
        </mxCell>
        <mxCell id="-ogSnWxAyyb8cwJE6GZp-150" style="edgeStyle=orthogonalEdgeStyle;rounded=0;orthogonalLoop=1;jettySize=auto;html=1;entryX=1;entryY=0;entryDx=0;entryDy=0;" parent="1" source="-ogSnWxAyyb8cwJE6GZp-33" target="-ogSnWxAyyb8cwJE6GZp-61" edge="1">
          <mxGeometry relative="1" as="geometry" />
        </mxCell>
        <mxCell id="-ogSnWxAyyb8cwJE6GZp-151" style="edgeStyle=orthogonalEdgeStyle;rounded=0;orthogonalLoop=1;jettySize=auto;html=1;entryX=0.5;entryY=0;entryDx=0;entryDy=0;" parent="1" source="-ogSnWxAyyb8cwJE6GZp-34" target="-ogSnWxAyyb8cwJE6GZp-76" edge="1">
          <mxGeometry relative="1" as="geometry" />
        </mxCell>
      </root>
    </mxGraphModel>
  </diagram>
</mxfile>
